External Loads File
version=1
nRows=31
nColumns=13
Range=5.000000e-03-10 seconds
endheader
time 	forceRightX 	forceRightY 	forceRightZ 	pointRightX 	pointRightY 	pointRightZ 	forceLeftX 	forceLeftY 	forceLeftZ 	pointLeftX 	pointLeftY 	pointLeftZ 		
0.005000 46.330037 224.902325 -0.000000 0.155170 0.179409 -0.165580 4.602415 144.644753 -0.000000 0.331592 0.462848 -0.416635
0.010000 45.774213 223.992619 -0.000000 0.155097 0.179484 -0.165575 4.849377 144.695222 -0.000000 0.331681 0.462802 -0.416644
0.015000 45.283166 223.205960 -0.000000 0.155006 0.179530 -0.165583 5.045651 144.701744 -0.000000 0.331770 0.462750 -0.416645
0.020000 44.901416 222.639469 -0.000000 0.154939 0.179582 -0.165594 5.166343 144.658322 -0.000000 0.331865 0.462683 -0.416647
0.025000 44.594438 222.336489 -0.000000 0.154884 0.179539 -0.165639 5.159791 144.537479 -0.000000 0.331949 0.462635 -0.416672
0.030000 44.456886 222.258166 -0.000000 0.154824 0.179578 -0.165659 5.080080 144.298231 -0.000000 0.332020 0.462502 -0.416672
0.035000 44.423917 222.374181 -0.000000 0.154724 0.179620 -0.165646 4.910912 143.946401 -0.000000 0.332103 0.462439 -0.416682
0.040000 44.459068 222.640281 -0.000000 0.154663 0.179677 -0.165653 4.678526 143.532753 -0.000000 0.332175 0.462375 -0.416684
0.045000 44.631513 222.992429 -0.000000 0.154594 0.179761 -0.165656 4.483268 143.127854 -0.000000 0.332326 0.462313 -0.416715
0.050000 44.832534 223.419665 -0.000000 0.154501 0.179809 -0.165654 4.304796 142.813559 -0.000000 0.332396 0.462257 -0.416726
0.055000 45.105099 223.903121 -0.000000 0.154426 0.179862 -0.165677 4.191214 142.633325 -0.000000 0.332474 0.462193 -0.416720
0.060000 45.420205 224.440640 -0.000000 0.154356 0.179907 -0.165666 4.109803 142.567156 -0.000000 0.332535 0.462162 -0.416722
0.065000 45.754346 225.010612 -0.000000 0.154332 0.179947 -0.165675 4.021906 142.550726 -0.000000 0.332584 0.462115 -0.416731
0.070000 46.109743 225.574457 -0.000000 0.154288 0.179998 -0.165679 3.915543 142.505782 -0.000000 0.332632 0.462091 -0.416713
0.075000 46.430158 226.111155 -0.000000 0.154243 0.180040 -0.165673 3.765771 142.380994 -0.000000 0.332666 0.462079 -0.416715
0.080000 46.663083 226.605588 -0.000000 0.154217 0.180030 -0.165670 3.575059 142.176544 -0.000000 0.332679 0.462055 -0.416705
0.085000 46.817079 227.029281 -0.000000 0.154207 0.180051 -0.165671 3.379955 141.913167 -0.000000 0.332684 0.462040 -0.416716
0.090000 46.821708 227.372080 -0.000000 0.154209 0.180061 -0.165672 3.143704 141.605335 -0.000000 0.332615 0.462047 -0.416693
0.095000 46.737588 227.608222 -0.000000 0.154225 0.180045 -0.165674 2.896515 141.265459 -0.000000 0.332587 0.462063 -0.416715
0.100000 46.558281 227.739392 -0.000000 0.154257 0.180014 -0.165681 2.623672 140.914722 -0.000000 0.332550 0.462089 -0.416709
0.105000 46.316875 227.766821 -0.000000 0.154304 0.179959 -0.165664 2.352322 140.600162 -0.000000 0.332497 0.462119 -0.416733
0.110000 46.050345 227.697055 -0.000000 0.154373 0.179906 -0.165670 2.140514 140.404880 -0.000000 0.332428 0.462169 -0.416747
0.115000 45.831697 227.534311 -0.000000 0.154424 0.179839 -0.165661 2.064310 140.392128 -0.000000 0.332355 0.462199 -0.416730
0.120000 45.613088 227.300036 -0.000000 0.154521 0.179773 -0.165647 2.091852 140.553415 -0.000000 0.332264 0.462275 -0.416730
0.125000 45.425505 226.987648 -0.000000 0.154619 0.179673 -0.165648 2.217279 140.825488 -0.000000 0.332157 0.462342 -0.416723
0.130000 45.278385 226.594541 -0.000000 0.154736 0.179611 -0.165653 2.406726 141.121211 -0.000000 0.332054 0.462405 -0.416719
0.135000 45.136064 226.139681 -0.000000 0.154861 0.179535 -0.165649 2.597317 141.367427 -0.000000 0.331947 0.462479 -0.416706
0.140000 44.988727 225.656012 -0.000000 0.154984 0.179428 -0.165670 2.771546 141.556800 -0.000000 0.331831 0.462586 -0.416700
0.145000 44.888427 225.169171 -0.000000 0.155115 0.179365 -0.165640 2.960694 141.708961 -0.000000 0.331707 0.462688 -0.416706
0.150000 44.840938 224.689073 -0.000000 0.155238 0.179287 -0.165658 3.138731 141.789601 -0.000000 0.331583 0.462756 -0.416697
0.155000 44.823637 224.206080 -0.000000 0.155376 0.179214 -0.165654 3.261010 141.741176 -0.000000 0.331462 0.462826 -0.416704
